<svg width="526" height="156" viewBox="0 0 526 156" fill="none" xmlns="http://www.w3.org/2000/svg">
<path d="M108.5 101.5L1.5 101.5M24 47.5C30.8944 47.5 37.7213 48.858 44.0909 51.4963C50.4605 54.1347 56.248 58.0018 61.1231 62.8769C65.9982 67.752 69.8653 73.5395 72.5037 79.9091C75.142 86.2787 76.5 93.1056 76.5 100M25.5 154C25.5 140.076 31.0312 126.723 40.8769 116.877C50.7226 107.031 64.0761 101.5 78 101.5M25.5 1.5L25.5 152.5M52 79C52 81.2091 50.2091 83 48 83C45.7909 83 44 81.2091 44 79C44 76.7909 45.7909 75 48 75C50.2091 75 52 76.7909 52 79Z" stroke="#AE4C33" stroke-width="3" stroke-linecap="round"></path>
<path d="M476.07 70.8999L477.57 68.5999H498.17L498.87 70.8999H476.07ZM524.97 101.8C525.304 101.8 525.47 102 525.47 102.4C525.47 102.8 525.304 103 524.97 103C523.037 103 521.037 102.933 518.97 102.8C516.97 102.667 515.004 102.6 513.07 102.6C510.937 102.6 509.07 102.667 507.47 102.8C505.937 102.933 504.204 103 502.27 103C502.004 103 501.87 102.8 501.87 102.4C501.87 102 502.004 101.8 502.27 101.8C505.537 101.8 507.537 101.3 508.27 100.3C509.004 99.2332 508.637 97.1666 507.17 94.0999L485.67 49.3999L488.87 44.5999L469.37 89.7999C467.637 93.8666 467.537 96.8999 469.07 98.8999C470.604 100.833 473.47 101.8 477.67 101.8C478.004 101.8 478.17 102 478.17 102.4C478.17 102.8 478.004 103 477.67 103C475.67 103 473.837 102.933 472.17 102.8C470.504 102.667 468.404 102.6 465.87 102.6C463.404 102.6 461.404 102.667 459.87 102.8C458.404 102.933 456.604 103 454.47 103C454.204 103 454.07 102.8 454.07 102.4C454.07 102 454.204 101.8 454.47 101.8C456.27 101.8 457.837 101.467 459.17 100.8C460.504 100.067 461.77 98.7666 462.97 96.8999C464.237 95.0332 465.604 92.3666 467.07 88.8999L488.37 39.7999C488.437 39.5999 488.67 39.4999 489.07 39.4999C489.47 39.4332 489.704 39.5332 489.77 39.7999L513.77 89.2999C515.37 92.5666 516.737 95.1332 517.87 96.9999C519.07 98.7999 520.237 100.067 521.37 100.8C522.504 101.467 523.704 101.8 524.97 101.8Z" fill="white"></path>
<path d="M428.588 104.2C421.122 104.2 414.722 102.8 409.388 99.9999C404.055 97.1332 399.955 93.2999 397.088 88.4999C394.288 83.6999 392.888 78.3666 392.888 72.4999C392.888 67.5666 393.822 63.0999 395.688 59.0999C397.622 55.0332 400.288 51.5332 403.688 48.5999C407.155 45.6666 411.188 43.3999 415.788 41.7999C420.388 40.1999 425.422 39.3999 430.888 39.3999C434.022 39.3999 437.122 39.6999 440.188 40.2999C443.255 40.8332 445.755 41.6332 447.688 42.6999C448.288 43.0332 448.622 43.3666 448.688 43.6999C448.822 43.9666 448.922 44.3999 448.988 44.9999L450.288 57.0999C450.288 57.2332 450.088 57.3332 449.688 57.3999C449.355 57.4666 449.155 57.3666 449.088 57.0999C447.355 52.2332 444.522 48.4666 440.588 45.7999C436.722 43.1332 431.988 41.7999 426.388 41.7999C418.455 41.7999 412.355 44.2332 408.088 49.0999C403.888 53.9666 401.788 60.5332 401.788 68.7999C401.788 75.4666 403.055 81.3332 405.588 86.3999C408.122 91.3999 411.588 95.3332 415.988 98.1999C420.455 101.067 425.488 102.5 431.088 102.5C434.088 102.5 436.488 102.2 438.288 101.6C440.088 101 441.388 99.8332 442.188 98.0999C443.055 96.3666 443.488 93.7999 443.488 90.3999C443.488 87.1999 443.288 84.8666 442.888 83.3999C442.488 81.8666 441.522 80.8666 439.988 80.3999C438.455 79.9332 435.988 79.6999 432.588 79.6999C432.188 79.6999 431.988 79.4332 431.988 78.8999C431.988 78.3666 432.155 78.0999 432.488 78.0999C436.822 78.3666 440.755 78.5332 444.288 78.5999C447.888 78.5999 451.622 78.4999 455.488 78.2999C455.822 78.2999 455.988 78.5332 455.988 78.9999C455.988 79.4666 455.822 79.6999 455.488 79.6999C454.088 79.6332 453.055 79.8666 452.388 80.3999C451.788 80.8666 451.388 81.9332 451.188 83.5999C451.055 85.2666 450.988 87.8666 450.988 91.3999C450.988 93.5999 451.055 95.2332 451.188 96.2999C451.322 97.3666 451.422 98.1666 451.488 98.6999C451.622 99.1666 451.688 99.6666 451.688 100.2C451.688 100.6 451.588 100.867 451.388 101C451.255 101.133 450.955 101.267 450.488 101.4C447.022 102.2 443.388 102.867 439.588 103.4C435.788 103.933 432.122 104.2 428.588 104.2Z" fill="white"></path>
<path d="M332.141 91.5999V42.7999L334.741 42.9999V91.5999C334.741 95.0666 335.375 97.6332 336.641 99.2999C337.908 100.967 339.908 101.8 342.641 101.8C342.775 101.8 342.841 102 342.841 102.4C342.841 102.8 342.775 103 342.641 103C341.241 103 339.808 102.967 338.341 102.9C336.941 102.833 335.341 102.8 333.541 102.8C331.808 102.8 330.108 102.833 328.441 102.9C326.775 102.967 325.208 103 323.741 103C323.608 103 323.541 102.8 323.541 102.4C323.541 102 323.608 101.8 323.741 101.8C326.675 101.8 328.808 100.967 330.141 99.2999C331.475 97.6332 332.141 95.0666 332.141 91.5999ZM382.741 104.3C382.741 104.433 382.575 104.5 382.241 104.5C381.975 104.567 381.775 104.567 381.641 104.5L334.541 48.6999C332.208 45.9666 330.175 44.1332 328.441 43.1999C326.775 42.1999 325.108 41.6999 323.441 41.6999C323.308 41.6999 323.241 41.4999 323.241 41.0999C323.241 40.6999 323.308 40.4999 323.441 40.4999C324.708 40.4999 325.975 40.5332 327.241 40.5999C328.508 40.6666 329.675 40.6999 330.741 40.6999C332.341 40.6999 333.808 40.6666 335.141 40.5999C336.475 40.5332 337.475 40.4999 338.141 40.4999C339.008 40.4999 339.641 40.8999 340.041 41.6999C340.441 42.4332 341.408 43.7666 342.941 45.6999L381.941 92.6999L382.741 104.3ZM382.741 51.9999V104.3L380.241 101.2V51.9999C380.241 48.5332 379.608 45.9666 378.341 44.2999C377.141 42.5666 375.175 41.6999 372.441 41.6999C372.308 41.6999 372.241 41.4999 372.241 41.0999C372.241 40.6999 372.308 40.4999 372.441 40.4999C373.841 40.4999 375.275 40.5666 376.741 40.6999C378.208 40.7666 379.808 40.7999 381.541 40.7999C383.208 40.7999 384.841 40.7666 386.441 40.6999C388.041 40.5666 389.541 40.4999 390.941 40.4999C391.075 40.4999 391.141 40.6999 391.141 41.0999C391.141 41.4999 391.075 41.6999 390.941 41.6999C388.141 41.6999 386.075 42.5666 384.741 44.2999C383.408 45.9666 382.741 48.5332 382.741 51.9999Z" fill="white"></path>
<path d="M317.642 103H275.042C274.842 103 274.742 102.8 274.742 102.4C274.742 102 274.842 101.8 275.042 101.8C277.309 101.8 279.009 101.633 280.142 101.3C281.342 100.967 282.142 100.3 282.542 99.2999C282.942 98.2999 283.142 96.8332 283.142 94.8999V48.5999C283.142 46.6666 282.942 45.2332 282.542 44.2999C282.142 43.2999 281.342 42.6332 280.142 42.2999C279.009 41.8999 277.309 41.6999 275.042 41.6999C274.842 41.6999 274.742 41.4999 274.742 41.0999C274.742 40.6999 274.842 40.4999 275.042 40.4999H315.842C316.509 40.4999 316.842 40.7999 316.842 41.3999L317.042 53.9999C317.042 54.1999 316.842 54.3332 316.442 54.3999C316.109 54.3999 315.909 54.2999 315.842 54.0999C315.376 50.4332 314.076 47.6666 311.942 45.7999C309.809 43.8666 307.009 42.8999 303.542 42.8999H298.442C296.442 42.8999 294.909 43.0666 293.842 43.3999C292.776 43.7332 292.042 44.3666 291.642 45.2999C291.242 46.1666 291.042 47.3999 291.042 48.9999V94.4999C291.042 96.0999 291.209 97.3666 291.542 98.2999C291.942 99.1666 292.642 99.7999 293.642 100.2C294.642 100.533 296.042 100.7 297.842 100.7H304.442C308.242 100.7 311.376 99.5999 313.842 97.3999C316.309 95.1332 318.009 91.9332 318.942 87.7999C318.942 87.5999 319.142 87.5332 319.542 87.5999C319.942 87.6666 320.142 87.7999 320.142 87.9999C319.876 89.7999 319.642 91.9666 319.442 94.4999C319.242 97.0332 319.142 99.3666 319.142 101.5C319.142 102.5 318.642 103 317.642 103ZM312.042 79.9999C312.042 77.1332 311.209 75.0332 309.542 73.6999C307.942 72.2999 305.342 71.5999 301.742 71.5999H287.242V69.2999H302.042C305.442 69.2999 307.942 68.7332 309.542 67.5999C311.142 66.3999 311.942 64.5666 311.942 62.0999C311.942 61.9666 312.109 61.8999 312.442 61.8999C312.842 61.8999 313.042 61.9666 313.042 62.0999C313.042 64.1666 313.009 65.7666 312.942 66.8999C312.942 68.0332 312.942 69.2332 312.942 70.4999C312.942 72.0332 312.976 73.5666 313.042 75.0999C313.176 76.6332 313.242 78.2666 313.242 79.9999C313.242 80.1332 313.042 80.1999 312.642 80.1999C312.242 80.1999 312.042 80.1332 312.042 79.9999Z" fill="white"></path>
<path d="M235.78 104.2C230.98 104.2 226.613 103.367 222.68 101.7C218.813 99.9666 215.48 97.5999 212.68 94.5999C209.946 91.5999 207.813 88.1666 206.28 84.2999C204.813 80.3666 204.08 76.1999 204.08 71.7999C204.08 66.3999 205.113 61.6666 207.18 57.5999C209.313 53.5332 212.113 50.1666 215.58 47.4999C219.046 44.7666 222.846 42.7332 226.98 41.3999C231.113 40.0666 235.213 39.3999 239.28 39.3999C244.213 39.3999 248.613 40.2999 252.48 42.0999C256.413 43.8332 259.746 46.1999 262.48 49.1999C265.213 52.1999 267.28 55.5999 268.68 59.3999C270.146 63.1999 270.88 67.0999 270.88 71.0999C270.88 75.7666 269.946 80.0999 268.08 84.0999C266.213 88.0999 263.646 91.5999 260.38 94.5999C257.18 97.5999 253.446 99.9666 249.18 101.7C244.98 103.367 240.513 104.2 235.78 104.2ZM239.28 102C243.48 102 247.28 100.933 250.68 98.7999C254.146 96.5999 256.846 93.4332 258.78 89.2999C260.78 85.0999 261.78 79.9666 261.78 73.8999C261.78 67.6999 260.68 62.1999 258.48 57.3999C256.346 52.5332 253.28 48.7332 249.28 45.9999C245.346 43.1999 240.646 41.7999 235.18 41.7999C228.18 41.7999 222.746 44.1666 218.88 48.8999C215.08 53.6332 213.18 60.0999 213.18 68.2999C213.18 73.0332 213.78 77.4666 214.98 81.5999C216.246 85.6666 218.046 89.2332 220.38 92.2999C222.713 95.3666 225.48 97.7666 228.68 99.4999C231.88 101.167 235.413 102 239.28 102Z" fill="white"></path>
<path d="M131.9 91.5999L132.9 42.7999L135.4 42.9999L134.4 91.5999C134.333 95.0666 134.933 97.6332 136.2 99.2999C137.533 100.967 139.733 101.8 142.8 101.8C143 101.8 143.1 102 143.1 102.4C143.1 102.8 143 103 142.8 103C141.333 103 139.833 102.967 138.3 102.9C136.767 102.833 135.033 102.8 133.1 102.8C131.3 102.8 129.6 102.833 128 102.9C126.4 102.967 124.9 103 123.5 103C123.367 103 123.3 102.8 123.3 102.4C123.3 102 123.367 101.8 123.5 101.8C126.3 101.8 128.367 100.967 129.7 99.2999C131.1 97.6332 131.833 95.0666 131.9 91.5999ZM201.9 101.8C202.033 101.8 202.1 102 202.1 102.4C202.1 102.8 202.033 103 201.9 103C200.233 103 198.367 102.967 196.3 102.9C194.233 102.833 192.033 102.8 189.7 102.8C187.5 102.8 185.433 102.833 183.5 102.9C181.567 102.967 179.833 103 178.3 103C178.1 103 178 102.8 178 102.4C178 102 178.1 101.8 178.3 101.8C181.567 101.8 183.667 101.367 184.6 100.5C185.533 99.6332 185.9 97.7666 185.7 94.8999L183.7 47.7999L187.6 42.1999L161.7 102.3C161.633 102.567 161.367 102.7 160.9 102.7C160.5 102.7 160.233 102.567 160.1 102.3L134 48.7999C131.667 44.0666 128.4 41.6999 124.2 41.6999C124.067 41.6999 124 41.4999 124 41.0999C124 40.6999 124.067 40.4999 124.2 40.4999C125.4 40.4999 126.633 40.5332 127.9 40.5999C129.233 40.6666 130.367 40.6999 131.3 40.6999C132.567 40.6999 133.7 40.6666 134.7 40.5999C135.767 40.5332 136.567 40.4999 137.1 40.4999C138.033 40.4999 138.767 40.8332 139.3 41.4999C139.833 42.0999 140.633 43.4999 141.7 45.6999L164.4 91.7999L160.7 98.1999L184.8 42.9999C185.133 42.1999 185.533 41.5999 186 41.1999C186.533 40.7332 187.133 40.4999 187.8 40.4999C188.267 40.4999 188.833 40.5332 189.5 40.5999C190.233 40.6666 191.067 40.6999 192 40.6999C193.867 40.6999 195.433 40.6666 196.7 40.5999C197.967 40.5332 199.267 40.4999 200.6 40.4999C200.733 40.4999 200.8 40.6999 200.8 41.0999C200.8 41.4999 200.733 41.6999 200.6 41.6999C197.4 41.6999 195.067 42.2332 193.6 43.2999C192.133 44.2999 191.433 46.1666 191.5 48.8999L193.6 94.8999C193.733 96.8332 194 98.2999 194.4 99.2999C194.8 100.3 195.567 100.967 196.7 101.3C197.833 101.633 199.567 101.8 201.9 101.8Z" fill="white"></path>
<path d="M513.662 143.264C512.416 143.264 511.345 142.934 510.45 142.274C509.556 141.614 508.866 140.69 508.382 139.502C507.913 138.299 507.678 136.899 507.678 135.3C507.678 133.701 507.913 132.308 508.382 131.12C508.866 129.917 509.556 128.986 510.45 128.326C511.345 127.666 512.416 127.336 513.662 127.336C514.909 127.336 515.98 127.666 516.874 128.326C517.769 128.986 518.451 129.917 518.92 131.12C519.404 132.308 519.646 133.701 519.646 135.3C519.646 136.899 519.404 138.299 518.92 139.502C518.451 140.69 517.769 141.614 516.874 142.274C515.98 142.934 514.909 143.264 513.662 143.264ZM513.662 141.526C514.88 141.526 515.862 140.983 516.61 139.898C517.373 138.813 517.754 137.28 517.754 135.3C517.754 133.32 517.373 131.787 516.61 130.702C515.862 129.617 514.88 129.074 513.662 129.074C512.43 129.074 511.44 129.617 510.692 130.702C509.944 131.787 509.57 133.32 509.57 135.3C509.57 137.28 509.944 138.813 510.692 139.898C511.44 140.983 512.43 141.526 513.662 141.526Z" fill="white"></path>
<path d="M485.049 143V141.394H488.547V129.206H485.049V127.6H493.893V129.206H490.395V141.394H493.893V143H485.049Z" fill="white"></path>
<path d="M460.132 143V127.6H463.366C465.888 127.6 467.751 128.289 468.954 129.668C470.171 131.047 470.78 132.924 470.78 135.3C470.78 137.676 470.171 139.553 468.954 140.932C467.751 142.311 465.888 143 463.366 143H460.132ZM461.98 141.306H463.322C464.671 141.306 465.749 141.057 466.556 140.558C467.377 140.059 467.971 139.363 468.338 138.468C468.704 137.573 468.888 136.517 468.888 135.3C468.888 134.083 468.704 133.027 468.338 132.132C467.971 131.237 467.377 130.541 466.556 130.042C465.749 129.543 464.671 129.294 463.322 129.294H461.98V141.306Z" fill="white"></path>
<path d="M441.066 143.264C440.04 143.264 439.123 143.051 438.316 142.626C437.524 142.201 436.894 141.555 436.424 140.69C435.97 139.81 435.742 138.71 435.742 137.39V127.6H437.59V137.456C437.59 138.776 437.913 139.795 438.558 140.514C439.204 141.233 440.054 141.592 441.11 141.592C442.166 141.592 443.01 141.233 443.64 140.514C444.271 139.795 444.586 138.776 444.586 137.456V127.6H446.434V137.39C446.434 138.71 446.2 139.81 445.73 140.69C445.261 141.555 444.623 142.201 443.816 142.626C443.01 143.051 442.093 143.264 441.066 143.264Z" fill="white"></path>
<path d="M415.973 143V129.272H411.837V127.6H421.957V129.272H417.821V143H415.973Z" fill="white"></path>
<path d="M392.859 143.264C391.774 143.264 390.828 143.059 390.021 142.648C389.229 142.237 388.613 141.665 388.173 140.932C387.748 140.199 387.528 139.341 387.513 138.358H389.449C389.464 139.238 389.757 140.001 390.329 140.646C390.916 141.277 391.759 141.592 392.859 141.592C393.871 141.592 394.649 141.35 395.191 140.866C395.749 140.367 396.027 139.773 396.027 139.084C396.027 138.512 395.895 138.035 395.631 137.654C395.367 137.258 394.935 136.913 394.333 136.62C393.747 136.312 392.955 135.997 391.957 135.674C390.549 135.249 389.523 134.669 388.877 133.936C388.232 133.203 387.909 132.293 387.909 131.208C387.909 130.475 388.1 129.815 388.481 129.228C388.863 128.641 389.413 128.179 390.131 127.842C390.85 127.505 391.723 127.336 392.749 127.336C393.717 127.336 394.561 127.519 395.279 127.886C396.013 128.238 396.577 128.737 396.973 129.382C397.384 130.027 397.589 130.768 397.589 131.604H395.653C395.653 131.193 395.543 130.79 395.323 130.394C395.103 129.998 394.773 129.668 394.333 129.404C393.893 129.14 393.336 129.008 392.661 129.008C391.855 129.008 391.18 129.206 390.637 129.602C390.095 129.983 389.823 130.511 389.823 131.186C389.823 131.699 389.941 132.132 390.175 132.484C390.425 132.836 390.828 133.159 391.385 133.452C391.943 133.731 392.698 134.031 393.651 134.354C394.546 134.647 395.309 134.992 395.939 135.388C396.585 135.769 397.076 136.246 397.413 136.818C397.765 137.39 397.941 138.101 397.941 138.952C397.941 139.788 397.729 140.529 397.303 141.174C396.878 141.819 396.284 142.333 395.521 142.714C394.759 143.081 393.871 143.264 392.859 143.264Z" fill="white"></path>
<path d="M344.169 143.264C343.083 143.264 342.115 142.949 341.265 142.318C340.414 141.673 339.747 140.756 339.263 139.568C338.793 138.38 338.559 136.957 338.559 135.3C338.559 133.657 338.801 132.242 339.285 131.054C339.769 129.866 340.451 128.949 341.331 128.304C342.225 127.659 343.281 127.336 344.499 127.336C345.951 127.336 347.131 127.761 348.041 128.612C348.965 129.463 349.515 130.607 349.691 132.044H347.645C347.498 131.164 347.153 130.453 346.611 129.91C346.083 129.353 345.379 129.074 344.499 129.074C343.237 129.074 342.247 129.624 341.529 130.724C340.81 131.824 340.451 133.349 340.451 135.3C340.451 137.28 340.81 138.813 341.529 139.898C342.247 140.983 343.179 141.526 344.323 141.526C345.144 141.526 345.819 141.284 346.347 140.8C346.875 140.301 347.271 139.671 347.535 138.908C347.813 138.131 347.967 137.331 347.997 136.51H344.565V134.926H349.889V143H348.195L348.041 140.668H347.953C347.645 141.46 347.19 142.091 346.589 142.56C346.002 143.029 345.195 143.264 344.169 143.264Z" fill="white"></path>
<path d="M314.785 143V127.6H316.677L323.673 139.766V127.6H325.499V143H323.585L316.589 130.834V143H314.785Z" fill="white"></path>
<path d="M291.518 143V141.394H295.016V129.206H291.518V127.6H300.362V129.206H296.864V141.394H300.362V143H291.518Z" fill="white"></path>
<path d="M270.824 143V129.272H266.688V127.6H276.808V129.272H272.672V143H270.824Z" fill="white"></path>
<path d="M242.871 143V127.6H244.719V141.328H252.529V143H242.871Z" fill="white"></path>
<path d="M223.344 143.264C222.317 143.264 221.4 143.051 220.594 142.626C219.802 142.201 219.171 141.555 218.702 140.69C218.247 139.81 218.02 138.71 218.02 137.39V127.6H219.868V137.456C219.868 138.776 220.19 139.795 220.836 140.514C221.481 141.233 222.332 141.592 223.388 141.592C224.444 141.592 225.287 141.233 225.918 140.514C226.548 139.795 226.864 138.776 226.864 137.456V127.6H228.712V137.39C228.712 138.71 228.477 139.81 228.008 140.69C227.538 141.555 226.9 142.201 226.094 142.626C225.287 143.051 224.37 143.264 223.344 143.264Z" fill="white"></path>
<path d="M199.328 143.264C198.243 143.264 197.297 143.059 196.49 142.648C195.698 142.237 195.082 141.665 194.642 140.932C194.217 140.199 193.997 139.341 193.982 138.358H195.918C195.933 139.238 196.226 140.001 196.798 140.646C197.385 141.277 198.228 141.592 199.328 141.592C200.34 141.592 201.118 141.35 201.66 140.866C202.218 140.367 202.496 139.773 202.496 139.084C202.496 138.512 202.364 138.035 202.1 137.654C201.836 137.258 201.404 136.913 200.802 136.62C200.216 136.312 199.424 135.997 198.426 135.674C197.018 135.249 195.992 134.669 195.346 133.936C194.701 133.203 194.378 132.293 194.378 131.208C194.378 130.475 194.569 129.815 194.95 129.228C195.332 128.641 195.882 128.179 196.6 127.842C197.319 127.505 198.192 127.336 199.218 127.336C200.186 127.336 201.03 127.519 201.748 127.886C202.482 128.238 203.046 128.737 203.442 129.382C203.853 130.027 204.058 130.768 204.058 131.604H202.122C202.122 131.193 202.012 130.79 201.792 130.394C201.572 129.998 201.242 129.668 200.802 129.404C200.362 129.14 199.805 129.008 199.13 129.008C198.324 129.008 197.649 129.206 197.106 129.602C196.564 129.983 196.292 130.511 196.292 131.186C196.292 131.699 196.41 132.132 196.644 132.484C196.894 132.836 197.297 133.159 197.854 133.452C198.412 133.731 199.167 134.031 200.12 134.354C201.015 134.647 201.778 134.992 202.408 135.388C203.054 135.769 203.545 136.246 203.882 136.818C204.234 137.39 204.41 138.101 204.41 138.952C204.41 139.788 204.198 140.529 203.772 141.174C203.347 141.819 202.753 142.333 201.99 142.714C201.228 143.081 200.34 143.264 199.328 143.264Z" fill="white"></path>
<path d="M169.637 143V127.6H171.529L178.525 139.766V127.6H180.351V143H178.437L171.441 130.834V143H169.637Z" fill="white"></path>
<path d="M150.791 143.264C149.545 143.264 148.474 142.934 147.579 142.274C146.685 141.614 145.995 140.69 145.511 139.502C145.042 138.299 144.807 136.899 144.807 135.3C144.807 133.701 145.042 132.308 145.511 131.12C145.995 129.917 146.685 128.986 147.579 128.326C148.474 127.666 149.545 127.336 150.791 127.336C152.038 127.336 153.109 127.666 154.003 128.326C154.898 128.986 155.58 129.917 156.049 131.12C156.533 132.308 156.775 133.701 156.775 135.3C156.775 136.899 156.533 138.299 156.049 139.502C155.58 140.69 154.898 141.614 154.003 142.274C153.109 142.934 152.038 143.264 150.791 143.264ZM150.791 141.526C152.009 141.526 152.991 140.983 153.739 139.898C154.502 138.813 154.883 137.28 154.883 135.3C154.883 133.32 154.502 131.787 153.739 130.702C152.991 129.617 152.009 129.074 150.791 129.074C149.559 129.074 148.569 129.617 147.821 130.702C147.073 131.787 146.699 133.32 146.699 135.3C146.699 137.28 147.073 138.813 147.821 139.898C148.569 140.983 149.559 141.526 150.791 141.526Z" fill="white"></path>
<path d="M126.71 143.264C125.463 143.264 124.385 142.934 123.476 142.274C122.581 141.614 121.892 140.69 121.408 139.502C120.939 138.314 120.704 136.913 120.704 135.3C120.704 133.701 120.939 132.308 121.408 131.12C121.892 129.917 122.581 128.986 123.476 128.326C124.385 127.666 125.463 127.336 126.71 127.336C128.294 127.336 129.57 127.776 130.538 128.656C131.506 129.521 132.071 130.68 132.232 132.132H130.186C130.039 131.267 129.673 130.541 129.086 129.954C128.499 129.367 127.707 129.074 126.71 129.074C125.434 129.074 124.429 129.631 123.696 130.746C122.963 131.846 122.596 133.364 122.596 135.3C122.596 137.251 122.963 138.776 123.696 139.876C124.429 140.976 125.434 141.526 126.71 141.526C127.751 141.526 128.551 141.247 129.108 140.69C129.68 140.133 130.039 139.414 130.186 138.534H132.232C131.997 140.001 131.411 141.159 130.472 142.01C129.548 142.846 128.294 143.264 126.71 143.264Z" fill="white"></path>
</svg>